<?xml version="1.0" encoding="utf-8"?>
<!-- Generator: Adobe Illustrator 18.0.0, SVG Export Plug-In . SVG Version: 6.00 Build 0)  -->
<!DOCTYPE svg PUBLIC "-//W3C//DTD SVG 1.1//EN" "http://www.w3.org/Graphics/SVG/1.1/DTD/svg11.dtd">
<svg version="1.1" id="Layer_1" xmlns="http://www.w3.org/2000/svg" xmlns:xlink="http://www.w3.org/1999/xlink" x="0px" y="0px"
	 viewBox="0 0 162.4 234.1" enable-background="new 0 0 162.4 234.1" xml:space="preserve">
<path fill="#BC2026" d="M78.5,0.9c-6.7,0.2-13.4,0.5-20.1,0.7c-6.9,0.2-14.2-0.3-21,0.6c-0.4,0.1-0.7,0.2-1,0.4
	c-1.2-0.2-2.5,0.5-2.5,2c-0.2,10.9,0.2,21.9,0.4,32.8c0.2,10.8,0,21.6,0.5,32.3c1,18.6,3.2,36.7,1.4,55.2c-4.7-0.9-9.6-1.3-14.3-1.7
	c-3-0.3-6-0.6-9-0.9c-2.1-0.2-4.2-0.9-6.2-0.4c-1.5-0.5-3.1-0.6-4.7-0.7c-0.8-0.1-1.7,0.6-1.9,1.4c-0.5,3.2,2.5,6.3,4.1,8.9
	c0,0,0,0.1,0.1,0.1c0,0.5,0.2,1,0.7,1.1c2.8,4.5,5.7,9.1,8.5,13.6c6.4,10.1,12.7,20.2,19.4,30.2c10.5,15.8,21.3,31.3,31,47.6
	c0,0,0,0,0,0c-0.5,0-0.5,0.8,0,0.8c0.2,0,0.4,0,0.5,0c1.6,2.8,3.3,5.5,4.8,8.3c0.6,1.1,1.8,0.9,2.4,0.2c0.2,0,0.5,0,0.7,0
	c4.2-1.4,7.3-5.8,10.2-8.9c3.9-4.3,7.4-8.9,10.9-13.4c8-10.3,16.2-20,25.3-29.3c8.6-8.8,16.9-17.9,25.4-26.8
	c6.7-6.9,16-14.3,18.2-24.1c0.1-0.3,0-0.5-0.1-0.7c0.6-1.1,0-2.8-1.6-2.8c-6.3-0.1-12.7-0.1-19,0c-5.6,0-11.4-0.2-17,0.6
	c5.1-21.4,3.1-44.2,1-65.8c-1-10.3-1.5-20.5-1.6-30.9c-0.1-9.3,0.5-18.8-0.6-28.1c-0.1-0.9-0.6-1.5-1.3-1.8c-0.2-0.6-0.6-1-1.4-1.1
	C106.6-0.5,92.5,0.4,78.5,0.9z M71,230c-0.7-1.6-1.5-3.2-2.3-4.9c2.2,0,4.5-0.1,6.7-0.3C73.8,226.4,72.2,228.1,71,230z M81.5,218.8
	c-1.3,1.6-3.1,3.2-4.8,4.8c-2.9,0.2-5.7,0.2-8.6,0.3c-0.7-1.3-1.4-2.7-2.1-4c5.2,0.1,10.5-0.1,15.6-1.3
	C81.6,218.7,81.5,218.8,81.5,218.8z M85,214.6c-0.8,1-1.7,2.1-2.5,3.1c-5.7,1.3-11.4,0.9-17.1,0.9c-0.8-1.5-1.6-2.9-2.5-4.4
	C69.7,216.2,78,215.2,85,214.6z M86,213.4c-8.3,0.6-16.3,0.6-24.4-1.3c-0.5-0.8-0.9-1.5-1.4-2.3c4,0.8,8.4,0.5,12.3,0.4
	c5.4-0.2,10.9-0.5,16.3-0.5C87.9,210.9,86.9,212.1,86,213.4z M92,205.7c-0.8,1-1.5,1.9-2.3,2.9c-5.2-0.2-10.3-0.1-15.5,0
	c-5.1,0.1-10.1-0.6-15.2-0.7c-0.7-1.1-1.4-2.2-2.1-3.3c5.6,1.1,11.9,1.1,17.2,1.2c6.4,0.1,12.7-0.5,19-1.6
	C92.8,204.7,92.4,205.2,92,205.7z M94.1,203.1c-6.6,0.9-13.3,0.9-19.9,0.7c-6.3-0.2-12.6-1.5-18.9-1.9c-0.8-1.2-1.5-2.3-2.3-3.5
	c14.4,1.6,28.9,1.6,43.4,1.8C95.6,201.2,94.8,202.2,94.1,203.1z M97.3,199.2c-15.2-0.8-30.4-1.2-45.6-2.6c-1.1-1.6-2.2-3.2-3.3-4.8
	c17.4,2.7,35,1.6,52.5,2.9C99.7,196.2,98.5,197.7,97.3,199.2z M101.9,193.7c-18.2-1.6-36.6-1.3-54.7-3.8c-1.4-2-2.8-4-4.1-6
	c21.2,0.4,42.2,4.9,63.5,4.5C104.9,190.2,103.4,192,101.9,193.7z M112.7,181.8c-1.8,1.8-3.5,3.6-5.2,5.5c-22,0.1-43.6-5.1-65.6-4.9
	c-0.8-1.2-1.7-2.4-2.5-3.7c-0.2-0.2-0.3-0.5-0.5-0.7C63,182.1,88.4,182.4,112.7,181.8z M114.5,180c-0.2,0.2-0.4,0.4-0.6,0.6
	c-12.6-0.4-25.1-0.5-37.7-1.1c-12.9-0.6-25.7-2.1-38.5-3.6c-1-1.5-1.9-2.9-2.9-4.4c27.7,2.5,56,5.2,83.8,4.2c0,0,0,0,0,0
	C117.2,177.2,115.8,178.6,114.5,180z M119.1,175.2c0-0.3-0.2-0.6-0.5-0.6c-28.4-1.2-56.6-3.3-85-4.9c-0.7-1-1.3-2.1-2-3.1
	c13.1,1.9,26.7,1.2,39.9,1.8c17.4,0.7,34.8,2.4,52.3,2C122.2,172.1,120.6,173.7,119.1,175.2z M124.8,169.3
	c-17.2-0.6-34.3-1.7-51.5-2.6c-14.2-0.8-29,0.2-43.1-2c-1-1.5-1.9-3-2.8-4.4c16.6,0.8,33.2,2.5,49.8,3.5c16.7,0.9,33.4,1.2,50,3
	C126.4,167.6,125.6,168.5,124.8,169.3z M128.3,165.6C112,163,95.4,162.8,79,162c-17.6-0.9-35.3-4.1-52.9-3.7
	c-1.4-2.1-2.7-4.2-4.1-6.4c37.1,4.5,74.4,8,111.8,8C132,161.8,130.1,163.7,128.3,165.6z M139.2,154.4c-1.4,1.4-2.7,2.7-4.1,4.1
	c-38.2-0.3-76.4-4-114.3-8.7c-0.5-0.8-1-1.6-1.5-2.4C59.3,147.8,99.1,155.5,139.2,154.4z M140.4,153.2c0,0-0.1,0.1-0.1,0.1
	c-40.7-1.7-81.4-7.4-122.2-7.7c-1.6-2.5-3.2-5.1-4.8-7.6c21.9,0.2,43.6,2.5,65.4,3.8c22.9,1.3,45.9,1.1,68.6,4.9
	C144.9,148.9,142.6,151,140.4,153.2z M148.1,145.9c-21.6-4.2-43.7-4.4-65.7-5.5c-23.4-1.2-46.7-3.7-70.1-4c-0.1-0.1-0.2-0.3-0.2-0.4
	c-0.6-0.9-1.1-1.8-1.7-2.7c10.8,0.9,21.6,1.7,32.4,2.3c13.3,0.7,26.6,0.5,39.9,1c12.7,0.5,25.2,1.4,37.8,2.9
	c11,1.3,22.2,2.4,33.2,0.7C151.9,142.1,150,144,148.1,145.9z M154.7,138.9c-12,1.6-24,0.3-36-1.2c-12-1.5-23.9-2.4-36-2.9
	c-12.7-0.5-25.4-0.3-38-0.9c-11.9-0.5-23.8-2-35.7-2.9c-0.4-0.6-0.7-1.1-1.1-1.7c-0.3-0.4-0.6-0.9-1-1.4c13.6,2.2,27.4,2.9,41.1,3.7
	c15.2,0.8,30.5,2,45.7,2.5c13.7,0.4,27.5-1,41.1,0.8c4.8,0.7,9.7,1.3,14.6,1.5c2.4,0.1,5.5,0.3,7.8-0.9
	C156.4,136.7,155.6,137.8,154.7,138.9z M122.1,128.5c-0.6,0.4-0.5,1.4,0.3,1.6c5.6,1.2,11.6,0.9,17.3,1c6.7,0.1,13.4,0.1,20.1,0
	c-0.5,1.1-1.1,2.1-1.7,3.1c-0.1,0-0.2,0-0.3,0c-7.5,2.4-17.6-0.5-25.1-1.5c-13.4-1.8-27.3-0.2-40.8-0.7c-14.6-0.5-29.3-1.9-43.9-2.6
	c-14.4-0.8-28.6-2-42.9-3.8c-0.1-0.1-0.2-0.3-0.3-0.4c0.6,0,1.3,0.1,2,0.3c0.5,0.1,1,0.1,1.3-0.1c3.6,1.2,8.8,0.9,12.2,1.1
	c5.4,0.4,10.8,0.9,16.2,1.1c0.4,0.3,1,0.3,1.4,0c0.2,0,0.5,0,0.7,0c1.2,0,1.4-1.7,0.3-2c0.1-0.5,0.3-0.9,0.4-1.4
	c14.8,0,29.9-0.8,44.6,1c12.4,1.5,26,4.9,38.4,1.4C122.1,127.2,122.1,127.8,122.1,128.5z M122.3,125.4c-13.4,2.5-26.7-0.8-40-2.5
	c-13.9-1.8-28.4-0.8-42.4-0.7c0.5-2.2,0.9-4.5,1.2-6.7c13.1,1.1,26.3,0.7,39.4,1.5c14,0.8,28.1,1.9,42.1,3.3
	C122.5,122,122.4,123.7,122.3,125.4z M122.6,119.2c-13.4-1.9-26.8-3.3-40.3-4.2c-13.4-0.9-27.6-2.4-41-1.4c0.1-1.4,0.2-2.9,0.3-4.3
	c12.5,2.1,25.7,0.8,38.3,1.5c14.3,0.8,28.7,2.2,43,1.8C122.8,114.8,122.7,117,122.6,119.2z M122.9,111.2
	c-13.7-0.7-27.4-1.5-41.2-2.5c-6.6-0.5-13.2-0.8-19.7-0.8c-6.8,0-13.6,0.3-20.4-0.8c0-1.8,0-3.6,0-5.4c12.4,1.9,25.6,1.1,38,1.6
	c14.6,0.6,28.9,2.1,43.4,4.3C123,108.7,123,110,122.9,111.2z M123.1,100.6c0,1.9,0,3.8-0.1,5.7c-12.8-3.3-26.4-4.1-39.6-4.8
	c-7-0.4-13.9-0.6-20.9-0.9c-6.9-0.3-14.1-1-21-0.9c-0.1-1.2-0.1-2.3-0.2-3.5c13.7,0.3,27.3,0.8,41,1.6
	C95.9,98.7,109.5,100.1,123.1,100.6z M123.1,99c-13.5-1.5-27.2-2.3-40.7-3.2c-13.7-0.9-27.4-1.7-41.1-1.5c-0.1-1.4-0.2-2.7-0.3-4
	c27.4,0,54.9,0.3,82.2,3.7C123.1,95.6,123.1,97.3,123.1,99z M123,92.2c-27.2-3.9-54.9-4-82.3-4c-0.2-1.8-0.3-3.7-0.5-5.5
	c5.3,1.4,11.2,1.5,16.5,1.7c7.3,0.3,14.5,0,21.8-0.3c15-0.5,29.7-0.5,44.4,2.5C122.9,88.5,123,90.3,123,92.2z M122.8,85.5
	c-13-4.1-27.5-3.6-40.9-3.3c-7.3,0.2-14.6,0.3-21.9,0.3c-6.8-0.1-13.3-1.2-20-1.8c-0.1-1.4-0.3-2.8-0.4-4.1c12.6,3.1,26.2,3,39,2.7
	c14.6-0.3,29.2-1.4,43.8-1.9C122.6,80,122.7,82.7,122.8,85.5z M122.3,75.9c-27.8-0.7-55.2,3.4-82.9-1.3c-0.1-1.1-0.2-2.2-0.3-3.3
	c0-0.2,0-0.3,0-0.5c27.6,0.2,55.2-0.1,82.7-0.9C122,71.9,122.2,73.9,122.3,75.9z M121.8,68.5c-27.5-0.7-55.2,0-82.7,0.3
	c-0.1-1.9-0.2-3.7-0.3-5.6c13.1,2.7,27,2.7,40.4,2.5c14.1-0.2,28.2-1,42.2-2.2C121.5,65.2,121.7,66.9,121.8,68.5z M121,60.3
	c0.1,0.5,0.1,1,0.1,1.5c-27.7,0.6-54.9,3.8-82.5-0.8c-0.1-2-0.1-3.9-0.2-5.9c5.8,1.7,12.3,2,18.2,2.4c7.8,0.6,15.6,0.6,23.5,0.6
	c7.7-0.1,15.4-0.4,23.1-0.7c5.6-0.2,11.8,0.3,17.4-0.5C120.8,58,120.9,59.1,121,60.3z M120.5,54.9c-5.1-0.6-10.7,0.1-15.6,0.2
	c-7.7,0.2-15.3,0.4-23,0.5c-7.3,0.1-14.6,0-21.9-0.4c-7.3-0.4-14.4-1.8-21.6-2.4c0-1.7-0.1-3.5-0.1-5.2c13.5,2.5,27.5,2.8,41.2,2.7
	c13.4-0.1,27.1,0,40.5-1C120.2,51.3,120.4,53.1,120.5,54.9z M77.9,34.6c14-0.8,27.6-1.9,41.4-0.4c0.2,4.5,0.4,9,0.7,13.5
	c-12.8-0.8-25.8,0.4-38.6,0.5c-14.4,0.1-28.7-0.6-43-2.7c0-1.1,0-2.2,0-3.4c5.2,0.8,10.7,0.4,15.9,0.6c7.3,0.3,14.7,0.6,22,0.8
	c14,0.4,28.8,1,42.6-1.6c0.9-0.2,0.7-1.6-0.2-1.5c-14.2,1-28.2,1.2-42.4,0.8c-6.8-0.2-13.7-0.5-20.5-0.8c-5.7-0.2-11.8-1-17.4-0.2
	c0-2.4,0-4.7,0-7.1C50.9,36,65.1,35.3,77.9,34.6z M119.3,33c-12.1-3.4-26-1.4-38.1-0.7c-14.2,0.9-28.9,1.1-42.9-1.4
	c0-1.8,0-3.6,0-5.4c0,0,0,0,0.1,0c14.5,2.3,29.5,1.4,44.2,2.6c11.7,0.9,25.3,2.6,36.6-1.9C119.2,28.5,119.2,30.8,119.3,33z
	 M119.1,24.7c-11.9,3.4-24.4,2.4-36.6,1.3c-14.5-1.2-29.3-0.4-43.6-2.6c-0.3,0-0.5,0-0.7,0.1c0-1.9,0-3.9,0-5.8
	c13.6,1.9,27.5,2.3,41.2,2.5c7.5,0.1,15.1,0.1,22.6,0.1c5.2,0,11.7,0.9,17-0.1C119.1,21.7,119.1,23.2,119.1,24.7z M119.1,18.2
	c-4.9-0.8-10.6,0-15.3,0c-7.5,0-15-0.1-22.5-0.2c-14.4-0.3-28.6-1.2-43-2.5c0-1.5,0-3,0-4.5c26.7-0.8,54.5,6.4,80.9,0.6
	C119.1,13.7,119.1,16,119.1,18.2z M119.1,10.1c-27.1,3.4-53.9-2.4-81-1.5c0-1,0-2,0-3c6,0.7,12.4,0,18.4-0.1
	c7.3-0.2,14.6-0.4,21.9-0.7c13.6-0.5,27.2-0.6,40.8-1.4C119.2,5.7,119.2,7.9,119.1,10.1z"/>
</svg>
