<?xml version="1.0" encoding="utf-8"?>
<!-- Generator: Adobe Illustrator 18.0.0, SVG Export Plug-In . SVG Version: 6.00 Build 0)  -->
<!DOCTYPE svg PUBLIC "-//W3C//DTD SVG 1.1//EN" "http://www.w3.org/Graphics/SVG/1.1/DTD/svg11.dtd">
<svg version="1.1" id="Layer_1" xmlns="http://www.w3.org/2000/svg" xmlns:xlink="http://www.w3.org/1999/xlink" x="0px" y="0px"
	 viewBox="0 0 204 15.7" enable-background="new 0 0 204 15.7" xml:space="preserve">
<path fill="#EDEDED" d="M203.8,6.9c-0.1-0.7-0.7-0.9-1.2-0.8c-0.2-0.2-0.5-0.4-0.7-0.6c-0.2-0.5-0.7-1-1.4-1
	c-11.4,0-22.8-0.2-34.2-0.6c-0.2-0.1-0.5-0.1-0.7,0c-23.2-0.8-46.5-2-69.7-2.5C83.2,1.2,70.5,0.9,57.8,0.6c-0.3-0.1-0.7-0.2-1,0
	c-2.8-0.1-5.5-0.2-8.3-0.3c-15.1-0.5-31-0.9-45.5,3.8C1.7,4.5,2.2,6.2,3.5,6c1.7-0.3,3.4-0.6,5.1-0.8C8.2,5.4,8.1,5.8,8.1,6.2
	C7.4,5.9,6.5,6.3,6.5,7.1C5,6.7,3.5,6.3,2.1,5.7C2,5.7,2,5.7,1.9,5.6c0,0-0.1,0-0.1-0.1C1.4,5.2,0.7,5.2,0.4,5.7
	c-2,3.7,3.3,7,6.3,7.7c3.4,0.8,5.9-1.7,7.6-4.6c1.8,5.4,9.1,3.3,13.2-1.7c2,6.5,10.4,5.2,14.6-0.2c2.8,6.4,11.7,5.3,15.2-0.6
	c1.1,2.3,3,4.1,6,4.5c3.5,0.5,6.6-0.9,8.4-3.6c2.3,4.6,8.2,4.3,10.9-0.3c3.4,5,11.8,4.6,15.4-0.1c1.1,2.6,3.3,3.9,5.8,4.2
	c0.4,0.3,0.8,0.6,1.2,0.9c0.7,0.4,1.5-0.2,1.4-1c2.1-0.4,4.2-1.6,5.7-3.5c0,0,0.1,0,0.1,0.1c2.6,5.1,9.9,4.2,13.7,0
	c3.7,6.7,12.4,7.6,15.9,1.6c2.6,5.2,8.9,6.4,11.4,1.5c3.1,4.6,9.8,3,12.8-1.9c2.9,5.6,10.3,5.5,14,0.2c2.7,6.2,10.1,8.7,13,4.2
	c1,1.7,2.7,2.8,5.2,2.7C202.8,15.5,204.7,10.7,203.8,6.9z M8.8,10.1C8.7,10,8.6,9.9,8.4,9.8C8.8,9.7,9.2,9.4,9.3,9
	c0.5,0.1,1,0.3,1.6,0.3C10.1,9.6,9.5,9.9,8.8,10.1z M13.5,5.4C13.5,5.4,13.5,5.4,13.5,5.4c-0.4-0.2-0.7-0.5-1-0.8
	c0.5-0.1,0.9-0.1,1.4-0.2C13.7,4.8,13.6,5.1,13.5,5.4z M16.4,4.2C18.2,4,20,3.9,21.8,3.7c0,0.2,0,0.5,0,0.7
	c-0.7-0.2-1.4-0.3-2.2-0.4c-0.5,0-0.9,0.4-1,0.8c-0.9-0.9-2.2,0.5-1.4,1.4c0.2,0.2,0.4,0.5,0.6,0.7c-0.5-0.2-1.1-0.5-1.6-0.8
	C16.2,5.6,16.3,5,16.4,4.2C16.4,4.2,16.4,4.2,16.4,4.2z M16.8,8.6c0.2,0.1,0.3,0.1,0.5,0.2c0.1,0,0.2,0,0.3,0
	c0.7,0.3,1.5,0.6,2.2,0.9C18.5,10,17.4,9.8,16.8,8.6z M22.7,8.3c0-0.2-0.1-0.5-0.3-0.7c-0.4-0.4-0.7-0.8-0.9-1.2
	C22,6.6,22.4,6.8,22.9,7c0.9,0.4,1.6-0.3,1.5-1.2c0-0.2-0.2-0.6-0.3-0.9c0.7,0.2,1.5,0.2,2,0C25.3,6.2,24,7.4,22.7,8.3z M30.7,7.8
	c0.2,0.1,0.4,0.1,0.7,0.2c0.6,0.4,1.3,0.7,1.9,1.1C32.2,9,31.3,8.6,30.7,7.8z M29.6,4.7c0-0.4-0.1-0.9,0-1.4c0,0,0-0.1,0-0.1
	c1,0,2-0.1,3-0.1c-0.3,0.3-0.5,0.8-0.2,1.3c0.4,0.8,0.7,1.6,1,2.5C32.1,6.2,30.8,5.5,29.6,4.7z M36.2,8.5c-0.2-0.4-0.3-0.8-0.5-1.1
	c0.1,0.1,0.2,0.1,0.3,0.2c0.8,0.5,1.8-0.3,1.6-1.2c-0.1-0.4-0.2-0.7-0.4-1.1c0.5,0.1,1,0.2,1.6,0.3c0.5,0.1,1.1-0.5,1.1-1
	c0.2,0.1,0.4,0.1,0.7,0.2C39.4,6.4,37.8,7.8,36.2,8.5z M47.5,4C47,3.8,46.3,4,46,4.4c-0.2-0.2-0.4-0.4-0.5-0.6
	C45,3.3,44.3,3.5,43.9,4c0-0.2-0.1-0.4-0.1-0.6c0-0.1,0-0.3-0.1-0.4c1.6,0,3.2,0,4.8,0c-0.1,0.3-0.1,0.6,0.1,0.9
	c0.1,0.2,0.2,0.5,0.3,0.7C48.5,4.5,48,4.3,47.5,4z M52.3,7.7c0.1-0.3,0.2-0.7,0-1.1c-0.1-0.2-0.1-0.3-0.2-0.5C52.6,6,53,5.6,53,5.1
	c0.2,0,0.4-0.1,0.5-0.2c0.6-0.3,1-1,1.3-1.7c0.3,0,0.6,0,0.9,0C55.2,5.2,53.9,6.7,52.3,7.7z M62.4,4.1c-0.8-0.1-1.4,0.6-1,1.4
	c0.2,0.3,0.4,0.7,0.6,1c-0.1,0-0.1-0.1-0.2-0.1c-0.4-0.2-0.8-0.3-1.3-0.5c-0.1-0.2-0.3-0.3-0.4-0.5c0,0,0,0,0,0
	c0.4-0.1,0.3-0.7-0.1-0.7c-0.1,0-0.2,0-0.4,0c-0.3-0.4-0.5-0.9-0.7-1.4c1.4,0,2.8,0.1,4.2,0.2C62.8,3.5,62.5,3.8,62.4,4.1z M66.6,8
	c0.4-0.3,0.6-0.8,0.3-1.2C67.3,6.9,67.6,7,68,7.1c0.1,0,0.2,0,0.2,0C67.7,7.5,67.2,7.8,66.6,8z M70,4.3c-0.1-0.1-0.2-0.2-0.4-0.2
	c-0.5-0.1-0.9-0.2-1.3-0.4c0.6,0,1.3,0,1.9,0.1C70.1,3.9,70.1,4.1,70,4.3z M73,5.6c-0.1-0.2-0.2-0.5-0.3-0.7c0-0.1,0.1-0.3,0.1-0.4
	c0.4,0.4,0.7,0.8,1.1,1.2C73.6,5.7,73.3,5.6,73,5.6z M74.3,7.3C74.9,7.5,75.4,7.7,76,8c0.5,0.3,1,0.1,1.2-0.4
	C77.8,7.5,78.3,7,78,6.4c-0.1-0.2-0.1-0.4-0.2-0.6c0.7,0.4,1.3,0.7,2,0.9C78.3,8.5,76,8.8,74.3,7.3z M80.9,4.9
	c-0.4-0.3-0.9-0.6-1.5-0.9c0.6,0,1.2,0,1.8,0.1C81.1,4.4,81,4.7,80.9,4.9z M86,4.6c-0.5-0.1-0.8,0-1.1,0.4c-0.3,0.1-0.5,0.4-0.5,0.7
	c-0.3-0.4-0.5-0.9-0.7-1.4c1.4,0.1,2.8,0.1,4.2,0.1c0,0,0,0.1,0,0.1c0.1,0.2,0.3,0.5,0.4,0.7C87.6,5,86.8,4.8,86,4.6z M89.7,8.2
	C89.7,8.2,89.7,8.2,89.7,8.2c-0.2-0.2-0.3-0.4-0.5-0.6c0.5,0.2,1,0.3,1.4,0.5c0.1,0,0.1,0,0.2,0C90.5,8.2,90.1,8.2,89.7,8.2z
	 M91.8,8c0.3-0.2,0.5-0.6,0.4-0.9c0,0,0,0,0,0c0.6,0.3,1.3,0,1.5-0.5c0.3,0,0.6,0.1,1,0C93.9,7.3,92.9,7.8,91.8,8z M102,7.3
	c-0.4-0.4-1.1-1-1.7-0.9c-0.3-0.5-0.5-1.1-0.6-1.7c1.1,0,2.3,0.1,3.4,0.1c-0.1,0.1-0.2,0.3-0.3,0.4c-0.5,0.3-0.9,0.9-0.5,1.5
	c0.3,0.5,0.6,1.1,0.9,1.7C102.8,8,102.4,7.6,102,7.3z M105.6,8.6C105.6,8.6,105.6,8.5,105.6,8.6c0.2-0.3,0.3-0.7,0.3-1
	c0.4,0.1,0.7,0.2,1.1,0.2c0.6,0,1.1-0.5,1.1-1.1c0-0.3,0-0.6,0-0.9c0.5,0,0.9-0.2,1.3-0.6c0.1-0.1,0.2-0.2,0.2-0.3
	c0.4,0,0.8,0,1.2,0C109.6,6.8,107.6,8.1,105.6,8.6z M114.6,6.7c-0.3-0.5-0.5-1-0.7-1.6c0.2,0,0.4,0,0.6,0c-0.2,0.4-0.2,1,0.3,1.4
	c0.2,0.1,0.4,0.2,0.5,0.4C115.1,6.7,114.8,6.7,114.6,6.7z M121.7,7.7c-0.2-0.3-0.4-0.5-0.6-0.8c0.6,0.1,1.1,0.1,1.7,0.1
	C122.4,7.2,122,7.5,121.7,7.7z M133.3,5.7c-0.1,0.3-0.1,0.6,0,1c0,0,0,0.1,0,0.1c-0.8-0.3-1.6-0.6-2.3-1.1c-0.1,0-0.1,0-0.2-0.1
	C131.8,5.7,132.5,5.7,133.3,5.7z M127.7,5.5c0.8,0,1.6,0.1,2.5,0.1c-0.2,0.1-0.3,0.2-0.4,0.4c0,0,0,0,0,0.1
	c-0.3,0.5-0.3,1.2,0.3,1.6c1.3,0.9,2.5,2,3.8,2.9C131.4,10,129,8.3,127.7,5.5z M136.4,10.5c0-0.2-0.1-0.3-0.2-0.5
	c0.7-0.1,1-1,0.7-1.6c0.5,0.2,1,0.4,1.5,0.8c0.1,0,0.1,0.1,0.2,0.1C138,9.8,137.3,10.2,136.4,10.5z M144,8c0.2,0.2,0.3,0.3,0.5,0.5
	c-0.4-0.2-0.8-0.4-1.2-0.6c-0.2-0.3-0.4-0.6-0.5-0.9c0.1-0.3,0.2-0.5,0.3-0.8c0.5,0,1,0,1.5,0.1C143.8,6.4,143.4,7.3,144,8z
	 M146.4,6.9c-0.4-0.2-0.7-0.4-1.1-0.6c-0.1,0-0.1-0.1-0.2-0.1c0.5,0,0.9,0,1.4,0.1C146.4,6.5,146.4,6.7,146.4,6.9z M151.3,9.3
	c-0.3-0.3-0.6-0.6-0.8-1c0.4,0,0.7,0,1.1,0C151.5,8.7,151.4,9,151.3,9.3z M154.2,6.5c0.2,0,0.4,0,0.7,0c-0.2,0.3-0.3,0.7-0.1,1.2
	c0.3,0.5,0.5,1.1,0.7,1.7C154.9,8.8,154.4,7.8,154.2,6.5z M158.2,11c0-0.1,0-0.2-0.1-0.4c-0.1-0.3-0.2-0.6-0.3-0.8
	c0.1,0,0.1-0.1,0.2-0.1c0.3,0.2,0.5,0.4,0.8,0.6c0.8,0.7,1.9,0.2,2-0.8c0.4,0.1,0.8,0.2,1.3,0C160.8,10.5,159.5,11,158.2,11z
	 M167.8,7c0.9,0,1.8,0,2.7,0.1c0,0.1,0,0.1,0.1,0.2c0.1,0.1,0.1,0.3,0.2,0.4c-0.7-0.3-1.3-0.5-1.8-0.3c-0.2,0.1-0.4,0.3-0.4,0.5
	c0,0.4,0.3,0.5,0.5,0.8c0.1,0.1,0.2,0.1,0.3,0.1c0,0,0,0,0,0c0.4,0.3,0.8,0.6,1.2,0.9c0.3,0.2,0.6,0.5,0.9,0.7
	C170,10.1,168.6,9,167.8,7z M185.3,10.2l-0.4-0.1c0,0,0,0,0,0c0.1-0.6-0.6-1.3-1.2-0.9c-0.2,0.1-0.3,0.2-0.4,0.3
	c-0.5-0.6-0.9-1.3-1.2-2.1c1.3,0,2.6,0,3.9,0.1c-0.3,0.3-0.4,0.7-0.3,1.1c0.2,0.7,0.5,1.3,0.7,2C186,10.5,185.7,10.3,185.3,10.2z
	 M190.5,8.2c-0.5-0.1-1,0.1-1.3,0.4c-0.5-0.4-0.9-0.7-1.3-1.1c1.3,0,2.6,0.1,3.8,0.1c0,0.2,0,0.5,0,0.7
	C191.3,8.3,190.9,8.3,190.5,8.2z M198.7,13.2c-3.2,1.2-4.3-1.9-4.5-4.5c0-0.3,0-0.7,0-1.1c0.5,0,1,0,1.5,0c0.2,0.7,0.4,1.5,0.6,2.3
	c0,0.1,0,0.1,0.1,0.2c0.1,0.2,0.1,0.4,0.2,0.6c0,0.3,0,0.5,0.1,0.8c0.1,0.5,0.6,0.8,1.1,0.9c0.7,0.2,1.3-0.5,1.1-1.1
	c0-0.2-0.1-0.3-0.1-0.5c0.2,0.2,0.3,0.3,0.5,0.5c0.7,0.7,2.3,0.2,2.2-0.9c0-0.3-0.1-0.6-0.1-0.8c0.2,0,0.3,0.1,0.5,0.1
	C201.3,11.3,200.4,12.6,198.7,13.2z"/>
</svg>
